# xmcd
#
# Track frame offsets: 
#        150
#        34322
#        55224
#        82806
#        105283
#        156510
#        192737
#        244069
#
# Disc length: 3846 seconds
#
# Revision: 1
# Processed by: cddbd v1.5.2PL0 Copyright (c) Steve Scherf et al.
# Submitted via: ExactAudioCopy v0.99pb3
#
DISCID=640f0408
DTITLE=Jackie McLean Mal Waldron Original Quartet - Complete Recording
DTITLE=s - cd02
DYEAR=1900
DGENRE=Jazz
TTITLE0=Strange Blues 
TTITLE1=Outburst 
TTITLE2=Left Alone 
TTITLE3=Contour (Bonus Track)
TTITLE4=Confirmation (Bonus Track) 
TTITLE5=Abstraction (Bonus Track) 
TTITLE6=Beau Jack (Bonus Track) 
TTITLE7=Mirage (Bonus Track) 
EXTD=Jackie McLean Mal Waldron Original Quartet/Complete Recordings - 
EXTD=cd02\n\n1/2\nJackie McLean alto sax\nMal Waldron piano\nArthur Ph
EXTD=ipps bass\nArt Taylor drums\nNews Jersey February 15 1957\n3\nJac
EXTD=kie McLean alto sax\nMal Waldron piano\nJulian Euell bass\nAl Dre
EXTD=ares drums\nNew York April 1960\n4\nJackie McLean alto sax\nMal W
EXTD=aldron piano\nDonald Byrd trumpet\nHank Mobley ts\nDoug Watkins b
EXTD=ass\nArt Taylor drums\nNew Jersey July 13 1956\n5/6\n20 July 1956
EXTD=\n7/8\nJackie McLean alto sax\nMal Waldron piano\nBill Hardman tr
EXTD=umpet\nDoug Watkins bass\nArt Taylor drums\nNew Jersey February 8
EXTD=1957
EXTT0=
EXTT1=
EXTT2=
EXTT3=
EXTT4=
EXTT5=
EXTT6=
EXTT7=
PLAYORDER=
